<svg width="120" height="51" viewBox="0 0 120 51" fill="none" xmlns="http://www.w3.org/2000/svg">
<path d="M69 28H88V32H69V28Z" fill="#E51E5C"/>
<path d="M86 21H89C90.1046 21 91 21.8954 91 23V28C91 29.1046 90.1046 30 89 30H86V21Z" fill="#E51E5C"/>
<path d="M86 30H89C90.1046 30 91 30.8954 91 32V41.75C91 41.8881 90.8881 42 90.75 42H86.25C86.1119 42 86 41.8881 86 41.75V30Z" fill="#E51E5C"/>
<path d="M67 22C67 21.4477 67.4477 21 68 21H72V41.75C72 41.8881 71.8881 42 71.75 42H67.25C67.1119 42 67 41.8881 67 41.75V22Z" fill="#E51E5C"/>
<path d="M67 22C67 21.4477 67.4477 21 68 21H89C90.1046 21 91 21.8954 91 23V25H67V22Z" fill="#E51E5C"/>
<path d="M35.8171 26.6885L20.9325 15.8454C20.239 15.3401 19.3004 15.3336 18.5999 15.8291L3.27065 26.6725C2.15466 27.4619 2.14182 29.1133 3.24541 29.92L18.5743 41.1245C19.2856 41.6445 20.2534 41.6376 20.9574 41.1077L35.8423 29.9029C36.9157 29.0949 36.903 27.4795 35.8171 26.6885Z" stroke="#3E2E87" stroke-width="4"/>
<path d="M35.9221 14.2007L20.9601 2.89749C20.255 2.36486 19.284 2.35802 18.5715 2.88067L3.16253 14.1841C2.08374 14.9755 2.07112 16.5824 3.13733 17.3906L18.546 29.0706C19.2688 29.6185 20.2698 29.6114 20.9848 29.0533L35.9472 17.373C36.9832 16.5642 36.9708 14.993 35.9221 14.2007Z" stroke="#E51E5C" stroke-width="4"/>
<path d="M95 40C95 38.8954 95.8954 38 97 38H115C116.105 38 117 38.8954 117 40C117 41.1046 116.105 42 115 42H97C95.8954 42 95 41.1046 95 40Z" fill="#E51E5C"/>
<path d="M112 34.25C112 34.1119 112.112 34 112.25 34H116.75C116.888 34 117 34.1119 117 34.25V39.5C117 40.8807 115.881 42 114.5 42C113.119 42 112 40.8807 112 39.5V34.25Z" fill="#E51E5C"/>
<path d="M93 23.5C93 22.1193 94.1193 21 95.5 21H98V42H95.5C94.1193 42 93 40.8807 93 39.5V23.5Z" fill="#E51E5C"/>
<path d="M96 23C96 21.8954 96.8954 21 98 21H114.5C115.881 21 117 22.1193 117 23.5V25H98C96.8954 25 96 24.1046 96 23Z" fill="#E51E5C"/>
<path d="M112 23.5C112 22.1193 113.119 21 114.5 21C115.881 21 117 22.1193 117 23.5V26.75C117 26.8881 116.888 27 116.75 27H112.25C112.112 27 112 26.8881 112 26.75V23.5Z" fill="#E51E5C"/>
<path d="M42 23C42 21.8954 42.8954 21 44 21H63C64.1046 21 65 21.8954 65 23V24C65 24.5523 64.5523 25 64 25H42V23Z" fill="#E51E5C"/>
<path d="M43 28H64V32H43V28Z" fill="#E51E5C"/>
<path d="M42 23H47V41.75C47 41.8881 46.8881 42 46.75 42H42.25C42.1119 42 42 41.8881 42 41.75V23Z" fill="#E51E5C"/>
<path d="M60 23H65V41.75C65 41.8881 64.8881 42 64.75 42H60.25C60.1119 42 60 41.8881 60 41.75V23Z" fill="#E51E5C"/>
<path d="M3.985 48.18C4.185 48.2433 4.34167 48.35 4.455 48.5C4.56833 48.6467 4.625 48.8283 4.625 49.045C4.625 49.3517 4.505 49.5883 4.265 49.755C4.02833 49.9183 3.68167 50 3.225 50H1.415V46.5H3.125C3.55167 46.5 3.87833 46.5817 4.105 46.745C4.335 46.9083 4.45 47.13 4.45 47.41C4.45 47.58 4.40833 47.7317 4.325 47.865C4.245 47.9983 4.13167 48.1033 3.985 48.18ZM2.22 47.11V47.935H3.025C3.225 47.935 3.37667 47.9 3.48 47.83C3.58333 47.76 3.635 47.6567 3.635 47.52C3.635 47.3833 3.58333 47.2817 3.48 47.215C3.37667 47.145 3.225 47.11 3.025 47.11H2.22ZM3.165 49.39C3.37833 49.39 3.53833 49.355 3.645 49.285C3.755 49.215 3.81 49.1067 3.81 48.96C3.81 48.67 3.595 48.525 3.165 48.525H2.22V49.39H3.165ZM6.91324 50.06C6.55658 50.06 6.23324 49.9833 5.94324 49.83C5.65658 49.6733 5.42991 49.4583 5.26324 49.185C5.09991 48.9083 5.01824 48.5967 5.01824 48.25C5.01824 47.9033 5.09991 47.5933 5.26324 47.32C5.42991 47.0433 5.65658 46.8283 5.94324 46.675C6.23324 46.5183 6.55824 46.44 6.91824 46.44C7.22158 46.44 7.49491 46.4933 7.73824 46.6C7.98491 46.7067 8.19158 46.86 8.35824 47.06L7.83824 47.54C7.60158 47.2667 7.30824 47.13 6.95824 47.13C6.74158 47.13 6.54824 47.1783 6.37824 47.275C6.20824 47.3683 6.07491 47.5 5.97824 47.67C5.88491 47.84 5.83824 48.0333 5.83824 48.25C5.83824 48.4667 5.88491 48.66 5.97824 48.83C6.07491 49 6.20824 49.1333 6.37824 49.23C6.54824 49.3233 6.74158 49.37 6.95824 49.37C7.30824 49.37 7.60158 49.2317 7.83824 48.955L8.35824 49.435C8.19158 49.6383 7.98491 49.7933 7.73824 49.9C7.49158 50.0067 7.21658 50.06 6.91324 50.06ZM10.4202 46.5C10.7302 46.5 10.9986 46.5517 11.2252 46.655C11.4552 46.7583 11.6319 46.905 11.7552 47.095C11.8786 47.285 11.9402 47.51 11.9402 47.77C11.9402 48.0267 11.8786 48.2517 11.7552 48.445C11.6319 48.635 11.4552 48.7817 11.2252 48.885C10.9986 48.985 10.7302 49.035 10.4202 49.035H9.71523V50H8.90523V46.5H10.4202ZM10.3752 48.375C10.6186 48.375 10.8036 48.3233 10.9302 48.22C11.0569 48.1133 11.1202 47.9633 11.1202 47.77C11.1202 47.5733 11.0569 47.4233 10.9302 47.32C10.8036 47.2133 10.6186 47.16 10.3752 47.16H9.71523V48.375H10.3752Z" fill="#3E2E87"/>
<path d="M21.72 49.25H20.095L19.785 50H18.955L20.515 46.5H21.315L22.88 50H22.03L21.72 49.25ZM21.465 48.635L20.91 47.295L20.355 48.635H21.465ZM24.7249 50.06C24.2249 50.06 23.8349 49.9217 23.5549 49.645C23.2782 49.3683 23.1399 48.9733 23.1399 48.46V46.5H23.9499V48.43C23.9499 49.0567 24.2099 49.37 24.7299 49.37C24.9832 49.37 25.1765 49.295 25.3099 49.145C25.4432 48.9917 25.5099 48.7533 25.5099 48.43V46.5H26.3099V48.46C26.3099 48.9733 26.1699 49.3683 25.8899 49.645C25.6132 49.9217 25.2249 50.06 24.7249 50.06ZM27.7767 47.16H26.6567V46.5H29.7067V47.16H28.5867V50H27.7767V47.16ZM31.7887 50.06C31.4254 50.06 31.097 49.9817 30.8037 49.825C30.5137 49.6683 30.2854 49.4533 30.1187 49.18C29.9554 48.9033 29.8737 48.5933 29.8737 48.25C29.8737 47.9067 29.9554 47.5983 30.1187 47.325C30.2854 47.0483 30.5137 46.8317 30.8037 46.675C31.097 46.5183 31.4254 46.44 31.7887 46.44C32.152 46.44 32.4787 46.5183 32.7687 46.675C33.0587 46.8317 33.287 47.0483 33.4537 47.325C33.6204 47.5983 33.7037 47.9067 33.7037 48.25C33.7037 48.5933 33.6204 48.9033 33.4537 49.18C33.287 49.4533 33.0587 49.6683 32.7687 49.825C32.4787 49.9817 32.152 50.06 31.7887 50.06ZM31.7887 49.37C31.9954 49.37 32.182 49.3233 32.3487 49.23C32.5154 49.1333 32.6454 49 32.7387 48.83C32.8354 48.66 32.8837 48.4667 32.8837 48.25C32.8837 48.0333 32.8354 47.84 32.7387 47.67C32.6454 47.5 32.5154 47.3683 32.3487 47.275C32.182 47.1783 31.9954 47.13 31.7887 47.13C31.582 47.13 31.3954 47.1783 31.2287 47.275C31.062 47.3683 30.9304 47.5 30.8337 47.67C30.7404 47.84 30.6937 48.0333 30.6937 48.25C30.6937 48.4667 30.7404 48.66 30.8337 48.83C30.9304 49 31.062 49.1333 31.2287 49.23C31.3954 49.3233 31.582 49.37 31.7887 49.37ZM37.4975 50L37.4925 47.9L36.4625 49.63H36.0975L35.0725 47.945V50H34.3125V46.5H34.9825L36.2925 48.675L37.5825 46.5H38.2475L38.2575 50H37.4975ZM41.3929 49.25H39.7679L39.4579 50H38.6279L40.1879 46.5H40.9879L42.5529 50H41.7029L41.3929 49.25ZM41.1379 48.635L40.5829 47.295L40.0279 48.635H41.1379ZM43.4652 47.16H42.3452V46.5H45.3952V47.16H44.2752V50H43.4652V47.16ZM45.831 46.5H46.641V50H45.831V46.5ZM49.1666 50.06C48.8033 50.06 48.475 49.9817 48.1816 49.825C47.8916 49.6683 47.6633 49.4533 47.4966 49.18C47.3333 48.9033 47.2516 48.5933 47.2516 48.25C47.2516 47.9067 47.3333 47.5983 47.4966 47.325C47.6633 47.0483 47.8916 46.8317 48.1816 46.675C48.475 46.5183 48.8033 46.44 49.1666 46.44C49.53 46.44 49.8566 46.5183 50.1466 46.675C50.4366 46.8317 50.665 47.0483 50.8316 47.325C50.9983 47.5983 51.0816 47.9067 51.0816 48.25C51.0816 48.5933 50.9983 48.9033 50.8316 49.18C50.665 49.4533 50.4366 49.6683 50.1466 49.825C49.8566 49.9817 49.53 50.06 49.1666 50.06ZM49.1666 49.37C49.3733 49.37 49.56 49.3233 49.7266 49.23C49.8933 49.1333 50.0233 49 50.1166 48.83C50.2133 48.66 50.2616 48.4667 50.2616 48.25C50.2616 48.0333 50.2133 47.84 50.1166 47.67C50.0233 47.5 49.8933 47.3683 49.7266 47.275C49.56 47.1783 49.3733 47.13 49.1666 47.13C48.96 47.13 48.7733 47.1783 48.6066 47.275C48.44 47.3683 48.3083 47.5 48.2116 47.67C48.1183 47.84 48.0716 48.0333 48.0716 48.25C48.0716 48.4667 48.1183 48.66 48.2116 48.83C48.3083 49 48.44 49.1333 48.6066 49.23C48.7733 49.3233 48.96 49.37 49.1666 49.37ZM54.9004 46.5V50H54.2354L52.4904 47.875V50H51.6904V46.5H52.3604L54.1004 48.625V46.5H54.9004Z" fill="#3E2E87"/>
<path d="M64.645 50L63.97 49.025H63.93H63.225V50H62.415V46.5H63.93C64.24 46.5 64.5083 46.5517 64.735 46.655C64.965 46.7583 65.1417 46.905 65.265 47.095C65.3883 47.285 65.45 47.51 65.45 47.77C65.45 48.03 65.3867 48.255 65.26 48.445C65.1367 48.6317 64.96 48.775 64.73 48.875L65.515 50H64.645ZM64.63 47.77C64.63 47.5733 64.5667 47.4233 64.44 47.32C64.3133 47.2133 64.1283 47.16 63.885 47.16H63.225V48.38H63.885C64.1283 48.38 64.3133 48.3267 64.44 48.22C64.5667 48.1133 64.63 47.9633 64.63 47.77ZM68.8018 49.35V50H66.0918V46.5H68.7368V47.15H66.8968V47.91H68.5218V48.54H66.8968V49.35H68.8018ZM70.9613 46.5C71.2713 46.5 71.5396 46.5517 71.7663 46.655C71.9963 46.7583 72.1729 46.905 72.2963 47.095C72.4196 47.285 72.4813 47.51 72.4813 47.77C72.4813 48.0267 72.4196 48.2517 72.2963 48.445C72.1729 48.635 71.9963 48.7817 71.7663 48.885C71.5396 48.985 71.2713 49.035 70.9613 49.035H70.2563V50H69.4463V46.5H70.9613ZM70.9163 48.375C71.1596 48.375 71.3446 48.3233 71.4713 48.22C71.5979 48.1133 71.6613 47.9633 71.6613 47.77C71.6613 47.5733 71.5979 47.4233 71.4713 47.32C71.3446 47.2133 71.1596 47.16 70.9163 47.16H70.2563V48.375H70.9163ZM74.8034 50.06C74.44 50.06 74.1117 49.9817 73.8184 49.825C73.5284 49.6683 73.3 49.4533 73.1334 49.18C72.97 48.9033 72.8884 48.5933 72.8884 48.25C72.8884 47.9067 72.97 47.5983 73.1334 47.325C73.3 47.0483 73.5284 46.8317 73.8184 46.675C74.1117 46.5183 74.44 46.44 74.8034 46.44C75.1667 46.44 75.4934 46.5183 75.7834 46.675C76.0734 46.8317 76.3017 47.0483 76.4684 47.325C76.635 47.5983 76.7184 47.9067 76.7184 48.25C76.7184 48.5933 76.635 48.9033 76.4684 49.18C76.3017 49.4533 76.0734 49.6683 75.7834 49.825C75.4934 49.9817 75.1667 50.06 74.8034 50.06ZM74.8034 49.37C75.01 49.37 75.1967 49.3233 75.3634 49.23C75.53 49.1333 75.66 49 75.7534 48.83C75.85 48.66 75.8984 48.4667 75.8984 48.25C75.8984 48.0333 75.85 47.84 75.7534 47.67C75.66 47.5 75.53 47.3683 75.3634 47.275C75.1967 47.1783 75.01 47.13 74.8034 47.13C74.5967 47.13 74.41 47.1783 74.2434 47.275C74.0767 47.3683 73.945 47.5 73.8484 47.67C73.755 47.84 73.7084 48.0333 73.7084 48.25C73.7084 48.4667 73.755 48.66 73.8484 48.83C73.945 49 74.0767 49.1333 74.2434 49.23C74.41 49.3233 74.5967 49.37 74.8034 49.37ZM79.5571 50L78.8821 49.025H78.8421H78.1371V50H77.3271V46.5H78.8421C79.1521 46.5 79.4204 46.5517 79.6471 46.655C79.8771 46.7583 80.0538 46.905 80.1771 47.095C80.3004 47.285 80.3621 47.51 80.3621 47.77C80.3621 48.03 80.2988 48.255 80.1721 48.445C80.0488 48.6317 79.8721 48.775 79.6421 48.875L80.4271 50H79.5571ZM79.5421 47.77C79.5421 47.5733 79.4788 47.4233 79.3521 47.32C79.2254 47.2133 79.0404 47.16 78.7971 47.16H78.1371V48.38H78.7971C79.0404 48.38 79.2254 48.3267 79.3521 48.22C79.4788 48.1133 79.5421 47.9633 79.5421 47.77ZM81.68 47.16H80.56V46.5H83.61V47.16H82.49V50H81.68V47.16ZM85.1714 50.06C84.8948 50.06 84.6264 50.0233 84.3664 49.95C84.1098 49.8733 83.9031 49.775 83.7464 49.655L84.0214 49.045C84.1714 49.155 84.3498 49.2433 84.5564 49.31C84.7631 49.3767 84.9698 49.41 85.1764 49.41C85.4064 49.41 85.5764 49.3767 85.6864 49.31C85.7964 49.24 85.8514 49.1483 85.8514 49.035C85.8514 48.9517 85.8181 48.8833 85.7514 48.83C85.6881 48.7733 85.6048 48.7283 85.5014 48.695C85.4014 48.6617 85.2648 48.625 85.0914 48.585C84.8248 48.5217 84.6064 48.4583 84.4364 48.395C84.2664 48.3317 84.1198 48.23 83.9964 48.09C83.8764 47.95 83.8164 47.7633 83.8164 47.53C83.8164 47.3267 83.8714 47.1433 83.9814 46.98C84.0914 46.8133 84.2564 46.6817 84.4764 46.585C84.6998 46.4883 84.9714 46.44 85.2914 46.44C85.5148 46.44 85.7331 46.4667 85.9464 46.52C86.1598 46.5733 86.3464 46.65 86.5064 46.75L86.2564 47.365C85.9331 47.1817 85.6098 47.09 85.2864 47.09C85.0598 47.09 84.8914 47.1267 84.7814 47.2C84.6748 47.2733 84.6214 47.37 84.6214 47.49C84.6214 47.61 84.6831 47.7 84.8064 47.76C84.9331 47.8167 85.1248 47.8733 85.3814 47.93C85.6481 47.9933 85.8664 48.0567 86.0364 48.12C86.2064 48.1833 86.3514 48.2833 86.4714 48.42C86.5948 48.5567 86.6564 48.7417 86.6564 48.975C86.6564 49.175 86.5998 49.3583 86.4864 49.525C86.3764 49.6883 86.2098 49.8183 85.9864 49.915C85.7631 50.0117 85.4914 50.06 85.1714 50.06Z" fill="#3E2E87"/>
<path d="M95.09 50.06C94.7333 50.06 94.41 49.9833 94.12 49.83C93.8333 49.6733 93.6067 49.4583 93.44 49.185C93.2767 48.9083 93.195 48.5967 93.195 48.25C93.195 47.9033 93.2767 47.5933 93.44 47.32C93.6067 47.0433 93.8333 46.8283 94.12 46.675C94.41 46.5183 94.735 46.44 95.095 46.44C95.3983 46.44 95.6717 46.4933 95.915 46.6C96.1617 46.7067 96.3683 46.86 96.535 47.06L96.015 47.54C95.7783 47.2667 95.485 47.13 95.135 47.13C94.9183 47.13 94.725 47.1783 94.555 47.275C94.385 47.3683 94.2517 47.5 94.155 47.67C94.0617 47.84 94.015 48.0333 94.015 48.25C94.015 48.4667 94.0617 48.66 94.155 48.83C94.2517 49 94.385 49.1333 94.555 49.23C94.725 49.3233 94.9183 49.37 95.135 49.37C95.485 49.37 95.7783 49.2317 96.015 48.955L96.535 49.435C96.3683 49.6383 96.1617 49.7933 95.915 49.9C95.6683 50.0067 95.3933 50.06 95.09 50.06ZM99.3186 49.25H97.6936L97.3836 50H96.5536L98.1136 46.5H98.9136L100.479 50H99.6286L99.3186 49.25ZM99.0636 48.635L98.5086 47.295L97.9536 48.635H99.0636ZM102.357 46.5C102.667 46.5 102.935 46.5517 103.162 46.655C103.392 46.7583 103.568 46.905 103.692 47.095C103.815 47.285 103.877 47.51 103.877 47.77C103.877 48.0267 103.815 48.2517 103.692 48.445C103.568 48.635 103.392 48.7817 103.162 48.885C102.935 48.985 102.667 49.035 102.357 49.035H101.652V50H100.842V46.5H102.357ZM102.312 48.375C102.555 48.375 102.74 48.3233 102.867 48.22C102.993 48.1133 103.057 47.9633 103.057 47.77C103.057 47.5733 102.993 47.4233 102.867 47.32C102.74 47.2133 102.555 47.16 102.312 47.16H101.652V48.375H102.312ZM106.584 49.25H104.959L104.649 50H103.819L105.379 46.5H106.179L107.744 50H106.894L106.584 49.25ZM106.329 48.635L105.774 47.295L105.219 48.635H106.329ZM109.734 50.06C109.377 50.06 109.054 49.9833 108.764 49.83C108.477 49.6733 108.25 49.4583 108.084 49.185C107.92 48.9083 107.839 48.5967 107.839 48.25C107.839 47.9033 107.92 47.5933 108.084 47.32C108.25 47.0433 108.477 46.8283 108.764 46.675C109.054 46.5183 109.379 46.44 109.739 46.44C110.042 46.44 110.315 46.4933 110.559 46.6C110.805 46.7067 111.012 46.86 111.179 47.06L110.659 47.54C110.422 47.2667 110.129 47.13 109.779 47.13C109.562 47.13 109.369 47.1783 109.199 47.275C109.029 47.3683 108.895 47.5 108.799 47.67C108.705 47.84 108.659 48.0333 108.659 48.25C108.659 48.4667 108.705 48.66 108.799 48.83C108.895 49 109.029 49.1333 109.199 49.23C109.369 49.3233 109.562 49.37 109.779 49.37C110.129 49.37 110.422 49.2317 110.659 48.955L111.179 49.435C111.012 49.6383 110.805 49.7933 110.559 49.9C110.312 50.0067 110.037 50.06 109.734 50.06ZM111.726 46.5H112.536V50H111.726V46.5ZM114.091 47.16H112.971V46.5H116.021V47.16H114.901V50H114.091V47.16ZM118.074 48.76V50H117.264V48.75L115.909 46.5H116.769L117.704 48.055L118.639 46.5H119.434L118.074 48.76Z" fill="#3E2E87"/>
<rect x="58" y="48.0607" width="1.5" height="1.5" transform="rotate(-45 58 48.0607)" fill="#3E2E87"/>
<rect x="89" y="48.0607" width="1.5" height="1.5" transform="rotate(-45 89 48.0607)" fill="#3E2E87"/>
<rect x="15" y="48.0607" width="1.5" height="1.5" transform="rotate(-45 15 48.0607)" fill="#3E2E87"/>
</svg>
