<svg xmlns="http://www.w3.org/2000/svg" viewBox="0 0 128.22 60.28"><defs><style>.cls-1,.cls-6{fill:#3e2e87;}.cls-1,.cls-5,.cls-7,.cls-8,.cls-9{stroke:#3e2e87;}.cls-1,.cls-10,.cls-11,.cls-2,.cls-3,.cls-4,.cls-5,.cls-7,.cls-8,.cls-9{stroke-miterlimit:10;}.cls-1,.cls-10,.cls-2,.cls-3,.cls-4,.cls-5,.cls-7,.cls-8,.cls-9{stroke-width:0.28px;}.cls-2{fill:#f2f2f2;}.cls-2,.cls-3,.cls-4{stroke:#e51e5c;}.cls-3,.cls-7{fill:#e51e5c;}.cls-4,.cls-8{fill:none;}.cls-5{fill:#fff;}.cls-9{fill:#f7f7f7;}.cls-10,.cls-11,.cls-12{fill:#d4d4d4;}.cls-10,.cls-11{stroke:#8e8e8e;}.cls-11{stroke-width:0.34px;}</style></defs><title>Asset 4</title><g id="Layer_2" data-name="Layer 2"><g id="Layer_1-2" data-name="Layer 1"><path class="cls-1" d="M47.7,2.07,95.21.14A1.77,1.77,0,0,1,96,.69a2.42,2.42,0,0,1,.27,1.94C96,4.1,91.52,23.08,85.26,49L49.08,58.7a8.46,8.46,0,0,1-1.94.28,7.91,7.91,0,0,1-2.2-.28L.74,44.61l35.08-5.25L46.59,2.9a1.07,1.07,0,0,1,.28-.55A1.07,1.07,0,0,1,47.7,2.07Z"/></g><g id="Layer_20" data-name="Layer 20"><path class="cls-2" d="M96.87,4.28h11a5.78,5.78,0,0,0-1.66,1.38A6,6,0,0,0,105.43,7c.93.13,1.95.23,3,.28s2.3,0,3.31,0A12.58,12.58,0,0,0,109.85,9a11.85,11.85,0,0,0-1.66,2.21,17.78,17.78,0,0,0,2.49.27s.42,0,2.48,0A6.26,6.26,0,0,0,110.4,14h4.15l-1.66,1.38,1.66.28,1.93.27a1.81,1.81,0,0,0-1.38.83l2.48,1.66-.83.28,1.31,1.3.08.08L117,20.3l-1.1.56,3.31,2.48-1.38.55a10.86,10.86,0,0,1,2.76,3.32,1.42,1.42,0,0,0-.83,0l-.55.28,1.93,2.76h-.82a1.11,1.11,0,0,0,0,.55,1.3,1.3,0,0,0,.82.83h-3.86l.83.55s.59.42,1.1.83a12,12,0,0,1,1.93,2.21,11,11,0,0,0,2.77,2.49l-1.38.27a8.24,8.24,0,0,0,1.65,1.11,2,2,0,0,1,.83.55,7.73,7.73,0,0,0,.55.83,2.18,2.18,0,0,0,.28.27c.17.1.36.19.55.28,1,.44,1.67.47,1.66.55s-1.57-.06-3.31.28c-1,.2-1,.43-2.49.83-1.16.32-1.69.34-2.76.55a27.09,27.09,0,0,0-3.87,1.11c-5,1.65-9.76,1.25-17.13,3.59-1,.3-2.44.81-4.69,1.38-3.74.95-3.92.4-5.25,1.1a3.93,3.93,0,0,1-2.49.56c-.36-.07-.71-.06-.83-.28s.4-.64.83-1.38a5.8,5.8,0,0,0,.56-1.66,20.39,20.39,0,0,0,.55-2.76c.24-1.88.75-3,1.93-7.74.75-3,1.21-4.86,1.66-7.45.26-1.47.4-2.55.83-4.42s.78-3,1.1-4.15c.91-3.22,1-4.64,1.66-7.73A81.93,81.93,0,0,1,96.87,4.28Z"/></g><g id="Layer_21" data-name="Layer 21"><path class="cls-3" d="M96.31,6.49h3q-1.12,2.37-2.21,5c-1.71,4.14-2.71,7.35-3.86,11.05-.78,2.48-1.75,5.76-2.77,9.67A133.77,133.77,0,0,1,96.87,20c2.3-3.9,4.64-7.39,6.9-10.5h1.66c-2.84,4.36-5.24,8.18-7.18,11.33A84.18,84.18,0,0,0,93,30.25c-1,2.13-1.73,4-2.21,5.25a13.64,13.64,0,0,0,1.38-1.66A14,14,0,0,0,94.1,30c1.53-2.19,3.09-4.4,4.7-6.63q4-5.55,8-10.77l1.38.28c-1.73,2.23-3.16,4-4.14,5.24-2.74,3.4-3.81,4.6-5.53,6.91-1.39,1.88-2.34,3.35-3.59,5.25-1.73,2.64-3.13,4.92-4.14,6.63l-1.38,3c1.16-1.82,2.55-4,4.14-6.36,2.36-3.54,3.56-5.36,5-7.18,2-2.51,3.6-4.31,5-5.8,2.2-2.39,4.27-4.41,6.07-6.08l.83.28a22.35,22.35,0,0,0-1.93,1.66,52,52,0,0,0-3.59,4.14c-1.15,1.31-1.19,1.24-3,3.31,0,0-1.07,1.2-1.94,2.21-2.27,2.67-4.55,5.91-5.8,7.74l-1.93,2.49-1.66,3,2.21-2.48c.55-.87,1.29-2,2.21-3.32.65-.92,1.91-2.69,3.59-4.69,1.45-1.72,2.69-3,4.15-4.42,2.06-2,5.11-5,9.11-8.57l.83.28c-3.13,2.68-5.1,4.56-6.35,5.8l-3.59,3.59A19,19,0,0,0,101,27.21a13.92,13.92,0,0,0-1.38,1.93L107.36,22l6.36-4.42,1.1.55L112.06,20c-2.87,2-4.3,3-4.7,3.31a80.78,80.78,0,0,0-7.48,6.42c-.44.42-1.67,1.55-1.63,1.59s1.65-1.3,3-2.48c1.83-1.54,3.85-3.12,6.07-4.7a94.24,94.24,0,0,1,8.29-5.25l.83.56a5.9,5.9,0,0,0-.83.27,8.15,8.15,0,0,0-1.1.55c-2.31,1.4-3.87,2.49-3.87,2.49-1.09.76-2.41,1.68-4.15,2.76a15,15,0,0,0-3,2.21,12.23,12.23,0,0,0-1.39,1.66L103.77,28c1.74-1.27,3.67-2.58,5.8-3.87,1.72-1,3.39-2,5-2.76l1.1.83-2.21,1.1a133.16,133.16,0,0,0-12.43,8c-1.14.83-2.24,1.66-3.31,2.49l2.48-1.11c2.76-1.75,5.79-3.52,9.12-5.24,2.37-1.24,4.68-2.34,6.9-3.32l.83,1.38-1.38.28a113,113,0,0,0-12.15,5.25,25.71,25.71,0,0,0-6.91,4.69,23.48,23.48,0,0,0-2.21,2.49,32,32,0,0,1,5.52-4.42,35.49,35.49,0,0,1,4.15-2.21,62.26,62.26,0,0,1,14.09-4.14l.55,1.38c-.55,0-1.1,0-1.66,0-7.52.22-13.82,3.45-18.51,6.9l2.77-1.38a34.69,34.69,0,0,1,3.31-1.1,37.24,37.24,0,0,1,10.5-1.38l1.38.82a7.3,7.3,0,0,1,1.66,1.11c.37.39.35.52.82,1.1a8.13,8.13,0,0,0,1.11,1.11c-.82,0-2.07-.11-3.59-.28-1.06-.11-1.73-.21-2.21-.27a41.84,41.84,0,0,0-6.91-.28,20,20,0,0,0-5.52.55A12.89,12.89,0,0,0,97.7,38a19.41,19.41,0,0,1,2.76-1.1,20.16,20.16,0,0,1,2.21-.55,26.55,26.55,0,0,1,6.9-.56,46.83,46.83,0,0,1,5.25.83c2.29.43,4.19.82,5.53,1.11l.82.83h-1.1A17.81,17.81,0,0,1,116.2,38a46.67,46.67,0,0,0-5-.83,25.86,25.86,0,0,0-6.91-.27A20.72,20.72,0,0,0,99.63,38a20.16,20.16,0,0,0-4.7,2.49c.81-.38,1.94-.88,3.32-1.38A23.58,23.58,0,0,1,101.84,38a20.25,20.25,0,0,1,5.8-.27c1,.06,2.16.22,4.42.55,3,.43,3.64.62,5.52.83s3.23.25,4.15.27l.27.83c-.45,0-1.12,0-1.93,0-1.89,0-5-.06-9.12-.27-4.7-.25-5-.41-6.9-.28a19.77,19.77,0,0,0-5,.83,14.07,14.07,0,0,0-5.53,3c-.23.22-.42.41-.55.55a24.28,24.28,0,0,1,4.42-1.93A26.54,26.54,0,0,1,102.67,41a73,73,0,0,1,7.46-.28c2.26,0,3.59,0,5.52,0A62.61,62.61,0,0,1,122,41c0,.13-4.26.13-8.84.55l-3,.28c-1.91.17-2.87.26-3.32.28-1.73.06-1.88-.09-3.59,0a17.33,17.33,0,0,0-2.76.27,16.46,16.46,0,0,0-3.87,1.38A31.79,31.79,0,0,0,93,45.72c8.09-2.2,12.85-2.86,15.74-3l4.42-.28c4.49-.3,5.61-.31,7.46-.55,1.1-.14,2.73-.39,4.7-.83a4.57,4.57,0,0,1,.83,0,4.06,4.06,0,0,1,1.1.28,30.86,30.86,0,0,0-4.42.83,36.56,36.56,0,0,0-4.14,1.38c-3.56,1.29-4.2.79-11.88,2.48-2.34.52-4.33,1-4.7,1.11-3.71.93-3.93,1.12-6.35,1.66-4.62,1-4.21.39-5.8,1.1-1,.47-2.38,1.25-3.87.83a3.6,3.6,0,0,1-1.1-.55A3.4,3.4,0,0,0,86.09,49a5.93,5.93,0,0,0,.56-2.21c.15-.9.25-1,.55-2.21.5-2,.54-3.09.83-4.69a47.74,47.74,0,0,1,1.38-5c.73-2.64.68-3,1.66-7.18.75-3.24.91-3.55,1.65-6.63,1.23-5,.88-6.44,1.94-8.84a19.54,19.54,0,0,0,1.1-3A18.56,18.56,0,0,0,96.31,6.49Z"/></g><g id="Layer_22" data-name="Layer 22"><line class="cls-4" x1="103.77" y1="9.53" x2="105.43" y2="7.04"/><line class="cls-4" x1="95.21" y1="10.91" x2="96.04" y2="7.6"/><line class="cls-4" x1="106.81" y1="12.57" x2="108.19" y2="11.19"/><line class="cls-4" x1="109.57" y1="14.5" x2="110.4" y2="13.95"/><line class="cls-4" x1="111.78" y1="15.88" x2="112.89" y2="15.33"/><line class="cls-4" x1="113.72" y1="17.54" x2="115.1" y2="16.71"/><line class="cls-4" x1="115.65" y1="18.92" x2="116.75" y2="18.65"/><line class="cls-4" x1="114.55" y1="21.41" x2="115.93" y2="20.86"/><line class="cls-4" x1="116.2" y1="24.17" x2="117.86" y2="23.89"/><line class="cls-4" x1="118.14" y1="27.49" x2="119.24" y2="27.49"/><path class="cls-4" d="M100.46,34.67c0-2.45,8.89-4.42,19.89-4.42"/><line class="cls-4" x1="115.1" y1="31.91" x2="117.31" y2="31.63"/><line class="cls-4" x1="120.35" y1="37.71" x2="122.56" y2="37.98"/><line class="cls-4" x1="121.73" y1="39.36" x2="124.77" y2="39.36"/><line class="cls-4" x1="122" y1="41.02" x2="125.87" y2="40.74"/><line class="cls-4" x1="120.9" y1="42.95" x2="123.38" y2="42.13"/></g><g id="Layer_23" data-name="Layer 23"><path class="cls-1" d="M90,43.78l1.66-2.21.23.47,0,.09c.11.21.16.32,0,.82a35.78,35.78,0,0,0,0,5.53c.1.91.19,1.83.28,2.76s.19,2,.28,3a1.71,1.71,0,0,0-.56-.83c-.09-.07-.54-.43-.82-.27s-.18.32-.28.82a9.27,9.27,0,0,1-.28,1.11A17.85,17.85,0,0,1,90,52.62a17.44,17.44,0,0,1,0-5Z"/></g><g id="Layer_3" data-name="Layer 3"><path class="cls-5" d="M47.42,4.83l45.86-1.1q-4.29,18.51-8.57,37l-45-7.45"/></g><g id="Layer_4" data-name="Layer 4"><path class="cls-6" d="M50.22,24.6,48.36,13l1.11,0,.87,5.86c.22,1.47.42,2.94.55,4.08h0c.16-1.14.45-2.5.78-4L53,13.09l1.23,0,1,6.24c.24,1.49.46,3,.58,4.3h0c.23-1.33.53-2.68.86-4.2l1.44-6.27,1.35,0L56.4,25.6l-1.29-.21L54.05,18.9c-.25-1.56-.42-2.75-.52-4h0c-.18,1.19-.4,2.35-.76,3.86l-1.37,6Z"/><path class="cls-6" d="M60.82,13.22l6.18.11,0,1.51-4.77-.16-.08,4.4,4.38.36,0,1.48-4.38-.42-.12,6-1.4-.23Z"/><path class="cls-6" d="M80.86,22.51c-.08-2.23-.17-4.91-.1-6.9h-.08c-.57,1.84-1.26,3.77-2.09,5.87L75.8,28.64l-1.41-.23L72.27,21c-.61-2.12-1.11-4-1.45-5.78h0c-.07,1.8-.22,4.23-.38,6.38l-.47,6.14-1.58-.25,1.17-14.16,2.17,0,2.21,7.27c.55,1.9,1,3.61,1.34,5.23h.07c.4-1.49,1-3.11,1.65-5l2.87-7.4,2.65.05.73,16.33-2.08-.33Z"/></g><g id="Layer_5" data-name="Layer 5"><path class="cls-7" d="M18,42.54l17.13-2.76L78.5,48.62l-17.68,5Z"/><line class="cls-8" x1="32.78" y1="40.19" x2="75.04" y2="49.58"/><line class="cls-8" x1="30.29" y1="40.47" x2="72.28" y2="50.41"/><line class="cls-8" x1="27.53" y1="41.02" x2="69.52" y2="51.24"/><line class="cls-8" x1="24.22" y1="41.57" x2="66.76" y2="51.79"/><line class="cls-8" x1="21.46" y1="41.85" x2="63.44" y2="52.9"/><line class="cls-8" x1="28.91" y1="45.44" x2="32.23" y2="44.61"/><line class="cls-8" x1="42.45" y1="48.76" x2="44.66" y2="47.93"/><line class="cls-8" x1="44.94" y1="49.58" x2="47.7" y2="48.76"/><line class="cls-8" x1="48.25" y1="50.41" x2="50.46" y2="49.58"/><line class="cls-8" x1="51.29" y1="50.97" x2="53.77" y2="50.41"/><line class="cls-8" x1="54.05" y1="51.79" x2="56.81" y2="51.24"/><line class="cls-8" x1="57.64" y1="52.62" x2="60.13" y2="52.07"/><line class="cls-8" x1="26.43" y1="44.61" x2="29.47" y2="44.06"/><line class="cls-8" x1="23.39" y1="43.78" x2="26.7" y2="43.23"/><line class="cls-8" x1="21.18" y1="43.23" x2="24.49" y2="42.68"/><line class="cls-8" x1="27.26" y1="43.23" x2="30.02" y2="42.95"/><line class="cls-8" x1="29.47" y1="44.06" x2="32.23" y2="43.51"/><line class="cls-8" x1="32.23" y1="44.61" x2="34.44" y2="44.06"/><line class="cls-8" x1="34.71" y1="45.16" x2="37.2" y2="44.61"/><line class="cls-8" x1="37.2" y1="45.99" x2="39.41" y2="45.16"/><line class="cls-8" x1="39.96" y1="46.82" x2="42.17" y2="45.99"/><line class="cls-8" x1="42.45" y1="47.37" x2="45.49" y2="46.82"/><line class="cls-8" x1="45.49" y1="47.93" x2="47.7" y2="47.37"/><line class="cls-8" x1="47.97" y1="48.76" x2="51.01" y2="47.93"/><line class="cls-8" x1="50.46" y1="49.58" x2="54.05" y2="48.76"/><line class="cls-8" x1="54.05" y1="50.41" x2="57.09" y2="49.58"/><line class="cls-8" x1="56.81" y1="51.24" x2="59.85" y2="50.14"/><line class="cls-8" x1="29.19" y1="42.68" x2="31.68" y2="42.13"/><line class="cls-8" x1="31.68" y1="43.23" x2="33.89" y2="42.68"/><line class="cls-8" x1="33.89" y1="43.78" x2="36.37" y2="43.23"/><line class="cls-8" x1="36.37" y1="44.34" x2="38.86" y2="43.78"/><line class="cls-8" x1="39.13" y1="45.16" x2="41.9" y2="44.61"/><line class="cls-8" x1="41.62" y1="45.72" x2="44.11" y2="45.16"/><line class="cls-8" x1="44.66" y1="46.27" x2="46.87" y2="45.72"/><line class="cls-8" x1="47.14" y1="47.1" x2="49.63" y2="46.27"/><line class="cls-8" x1="50.18" y1="47.65" x2="52.39" y2="47.1"/><line class="cls-8" x1="53.22" y1="48.48" x2="55.71" y2="47.93"/><line class="cls-8" x1="55.98" y1="49.31" x2="58.75" y2="48.76"/><line class="cls-8" x1="59.3" y1="49.86" x2="61.79" y2="49.31"/><line class="cls-8" x1="64.82" y1="50.14" x2="67.03" y2="49.31"/><line class="cls-8" x1="61.79" y1="49.31" x2="63.99" y2="48.48"/><line class="cls-8" x1="55.16" y1="47.65" x2="57.64" y2="47.1"/><line class="cls-8" x1="58.47" y1="48.48" x2="60.68" y2="47.65"/><line class="cls-8" x1="52.12" y1="47.1" x2="54.33" y2="46.27"/><line class="cls-8" x1="49.35" y1="46.27" x2="51.29" y2="45.44"/><line class="cls-8" x1="46.59" y1="45.44" x2="48.8" y2="44.89"/><line class="cls-8" x1="44.11" y1="45.16" x2="46.04" y2="44.34"/><line class="cls-8" x1="41.62" y1="44.34" x2="43.83" y2="43.78"/><line class="cls-8" x1="39.13" y1="43.78" x2="41.62" y2="43.23"/><line class="cls-8" x1="36.37" y1="43.23" x2="39.13" y2="42.68"/><line class="cls-8" x1="33.89" y1="42.68" x2="36.1" y2="41.85"/><line class="cls-8" x1="31.68" y1="42.13" x2="33.33" y2="41.3"/><line class="cls-8" x1="33.61" y1="41.02" x2="36.1" y2="41.02"/><line class="cls-8" x1="36.1" y1="41.57" x2="37.75" y2="41.3"/><line class="cls-8" x1="38.31" y1="42.4" x2="39.69" y2="41.85"/><line class="cls-8" x1="41.07" y1="42.95" x2="42.45" y2="42.4"/><line class="cls-8" x1="43.28" y1="43.51" x2="44.94" y2="42.95"/><line class="cls-8" x1="45.49" y1="44.06" x2="47.97" y2="43.51"/><line class="cls-8" x1="48.8" y1="44.61" x2="50.46" y2="44.06"/><line class="cls-8" x1="51.01" y1="45.44" x2="53.22" y2="44.89"/><line class="cls-8" x1="54.05" y1="45.99" x2="55.71" y2="45.44"/><line class="cls-8" x1="56.54" y1="46.55" x2="58.75" y2="45.99"/><line class="cls-8" x1="59.85" y1="47.37" x2="62.06" y2="46.82"/><line class="cls-8" x1="62.89" y1="47.93" x2="65.1" y2="47.37"/><line class="cls-8" x1="66.2" y1="48.76" x2="68.69" y2="48.2"/><line class="cls-8" x1="69.24" y1="48.2" x2="71.73" y2="47.37"/><line class="cls-8" x1="72.56" y1="49.03" x2="75.04" y2="47.93"/><line class="cls-8" x1="65.65" y1="47.37" x2="68.41" y2="46.55"/><line class="cls-8" x1="62.89" y1="46.82" x2="65.1" y2="45.99"/><line class="cls-8" x1="59.85" y1="45.99" x2="61.79" y2="45.16"/><line class="cls-8" x1="55.71" y1="45.44" x2="58.47" y2="44.61"/><line class="cls-8" x1="53.22" y1="44.89" x2="55.98" y2="44.06"/><line class="cls-8" x1="50.46" y1="44.06" x2="53.22" y2="43.23"/><line class="cls-8" x1="47.97" y1="43.51" x2="50.46" y2="42.95"/><line class="cls-8" x1="45.49" y1="42.95" x2="47.42" y2="42.4"/><line class="cls-8" x1="43.28" y1="42.4" x2="44.94" y2="41.85"/><line class="cls-8" x1="40.24" y1="41.85" x2="42.45" y2="41.3"/><line class="cls-8" x1="38.31" y1="41.3" x2="39.69" y2="40.74"/><line class="cls-8" x1="36.1" y1="40.74" x2="37.2" y2="40.19"/></g><g id="Layer_6" data-name="Layer 6"><path class="cls-9" d="M13.17,47.1c5.34-1,9.29-1.58,10.22-1.66a6.86,6.86,0,0,1,1.1,0,6.41,6.41,0,0,1,1.39.28l17.67,4.42c.42.15.86.36.83.55s-.42.25-.55.28c-.9.18-4.58,1-9.67,2.21a7.07,7.07,0,0,1-3.87,0l-17.4-5.53c-.15-.06-.28-.17-.27-.28S12.84,47.08,13.17,47.1Z"/></g><g id="Layer_7" data-name="Layer 7"><path class="cls-5" d="M.19,44.61a.83.83,0,0,0,0,.55.9.9,0,0,0,.82.56L45.49,59.8a5,5,0,0,0,1.1.28,5.82,5.82,0,0,0,2.76-.28l34.81-8a1.65,1.65,0,0,0,1.1-.55,1.85,1.85,0,0,0,0-2.21L50.18,58.15a11.88,11.88,0,0,1-2.48.55,12.17,12.17,0,0,1-5-.55c-2.56-.79-14.2-4.44-30.11-9.67Z"/><path class="cls-10" d="M72.28,52.9l1.94-.55v1.1L72.28,54Z"/><path class="cls-10" d="M68.69,54.83l1.93-.55v-.83L68.69,54h0Z"/><path class="cls-10" d="M76.43,51.79l1.1-.27v.83l-1.1.55Z"/><path class="cls-11" d="M82.23,50.44l1.52-.3v.91l-1.52.61Z"/><path class="cls-10" d="M78.64,51.24l2.2-.55v1.1l-2.2.56Z"/><circle class="cls-12" cx="64.82" cy="55.39" r="0.41"/><circle class="cls-12" cx="63.44" cy="55.66" r="0.41"/><circle class="cls-12" cx="62.06" cy="55.94" r="0.41"/></g></g></svg>